<svg xmlns="http://www.w3.org/2000/svg" width="54" height="62" fill="none" viewBox="0 0 54 62">
  <path fill="#3581F2" d="M32.243 33.96c.995 0 1.738.29 2.23.873.504.583.755 1.515.755 2.796 0 1.421-.252 2.446-.755 3.076-.492.629-1.235.944-2.23.944a3.96 3.96 0 0 1-.65-.053c-.094-.023-.14-.087-.14-.192v-7.218c0-.093.046-.151.14-.174a3.96 3.96 0 0 1 .65-.053Zm-10.648-.088c1.58 0 2.371.612 2.371 1.835 0 .64-.205 1.136-.615 1.485-.41.35-.995.524-1.756.524-.152 0-.369-.011-.65-.034-.093-.024-.14-.082-.14-.175v-3.39c0-.105.047-.17.14-.192a3.97 3.97 0 0 1 .65-.053Z"/>
  <path fill="#3581F2" fill-rule="evenodd" d="M40.813 25.188c3.625 0 5.438 0 6.895.507a9.065 9.065 0 0 1 5.576 5.548c.51 1.45.51 3.254.51 6.861 0 3.608 0 5.412-.51 6.861a9.064 9.064 0 0 1-5.576 5.548c-1.457.507-3.27.508-6.895.508H24.014c-3.625 0-5.438 0-6.895-.508a9.064 9.064 0 0 1-5.576-5.547c-.51-1.45-.51-3.254-.51-6.862 0-3.607 0-5.411.51-6.861a9.065 9.065 0 0 1 5.576-5.548c1.457-.508 3.27-.508 6.895-.508h16.8Zm-8.922 6.062c-.924 0-1.884.047-2.88.14a.998.998 0 0 0-.703.367c-.187.222-.28.472-.28.752v10.59c0 .28.093.53.28.751a.998.998 0 0 0 .703.367c.996.094 1.956.14 2.88.14 2.096 0 3.73-.577 4.9-1.73 1.183-1.154 1.774-2.82 1.774-4.998 0-2.004-.585-3.565-1.756-4.683-1.171-1.13-2.81-1.696-4.917-1.696Zm-10.647 0c-.925 0-1.885.047-2.88.14a.998.998 0 0 0-.703.367 1.133 1.133 0 0 0-.28.752v10.677c0 .268.099.501.298.7a.967.967 0 0 0 .703.296h1.422c.27 0 .503-.099.702-.297a.95.95 0 0 0 .299-.699v-2.83c0-.094.053-.14.158-.14.398.023.726.034.983.034 1.721 0 3.027-.396 3.917-1.188.901-.804 1.352-1.98 1.352-3.53 0-2.854-1.99-4.282-5.971-4.282Zm19.22.175c-.268 0-.503.1-.702.297a.955.955 0 0 0-.298.7v10.764c0 .268.1.501.298.7a.963.963 0 0 0 .703.296h1.51c.27 0 .503-.099.702-.297a.95.95 0 0 0 .299-.699v-3.74c0-.104.053-.157.158-.157h3.232a.963.963 0 0 0 .702-.297.953.953 0 0 0 .299-.699v-.63c0-.267-.1-.5-.3-.698a.964.964 0 0 0-.701-.297h-3.232c-.105 0-.158-.052-.158-.157v-2.15c0-.093.053-.14.158-.14h3.583a.964.964 0 0 0 .703-.296.955.955 0 0 0 .298-.7v-.803a.96.96 0 0 0-.298-.7.965.965 0 0 0-.703-.297h-6.252Z" clip-rule="evenodd"/>
  <path fill="#3581F2" fill-rule="evenodd" d="M35.308 0c2.236 0 4.9 1.098 6.482 2.672l9.525 9.478C52.896 13.724 54 16.374 54 18.6v4.52c0 1.142-.93 2.067-2.077 2.067a2.072 2.072 0 0 1-2.077-2.066v-2.454H39.808c-3.434 0-6.231-2.783-6.231-6.2V4.134H6.23A2.08 2.08 0 0 0 4.154 6.2v49.6a2.08 2.08 0 0 0 2.077 2.067H47.77a2.08 2.08 0 0 0 2.077-2.067v-2.712c0-1.142.93-2.067 2.077-2.067 1.147 0 2.077.925 2.077 2.067V55.8c0 3.42-2.794 6.2-6.231 6.2H6.23C2.793 62 0 59.22 0 55.8V6.2C0 2.78 2.794 0 6.23 0h29.078Zm2.423 14.467c0 1.138.933 2.067 2.076 2.067h9.526c-.257-.57-.59-1.098-.955-1.462l-9.525-9.478a4.667 4.667 0 0 0-1.122-.786v9.659Z" clip-rule="evenodd"/>
</svg>
