<svg xmlns="http://www.w3.org/2000/svg" width="48" height="48" fill="none" viewBox="0 0 48 48">
  <path fill="#C4B100" fill-rule="evenodd" d="M25.476 9.216a5.802 5.802 0 1 1 2.221 11.162 5.808 5.808 0 0 1-5.802-5.801l.003-.216a5.802 5.802 0 0 1 3.578-5.145Zm2.22 2.875a2.488 2.488 0 0 0-2.484 2.486 2.484 2.484 0 1 0 2.485-2.486Z" clip-rule="evenodd"/>
  <path fill="#C4B100" fill-rule="evenodd" d="M40.52.002A7.679 7.679 0 0 1 48 7.67v32.66A7.679 7.679 0 0 1 40.33 48H7.67A7.678 7.678 0 0 1 0 40.33V7.67l.002-.19A7.679 7.679 0 0 1 7.67 0h32.66l.19.002ZM5.96 44.326c.538.233 1.12.356 1.712.356h30.084l-15.92-16.97L5.96 44.326Zm25.79-10.898 10.23 10.905a4.343 4.343 0 0 0 2.703-4.004v-6.165l-7.385-6.56-5.549 5.824ZM7.455 3.324A4.358 4.358 0 0 0 3.318 7.67v32.657l.003.154c.019.506.127 1.002.318 1.468l17.009-17.797a1.66 1.66 0 0 1 1.2-.512h.007a1.658 1.658 0 0 1 1.203.523l6.417 6.842 6.526-6.85a1.656 1.656 0 0 1 2.302-.096l6.38 5.668V7.67a4.358 4.358 0 0 0-4.139-4.347l-.215-.006H7.67l-.215.006Z" clip-rule="evenodd"/>
</svg>
