<svg xmlns="http://www.w3.org/2000/svg" width="47" height="54" fill="none" viewBox="0 0 47 54">
  <path fill="#00A8F7" d="M11.287 21.938h24c.33 0 .6.33.6.6v2.4c0 .33-.27.6-.6.6h-24c-.33 0-.6-.331-.6-.6v-2.4c0-.331.27-.6.6-.6Zm.115 6.862h24c.33 0 .6.33.6.6v2.4c0 .33-.27.6-.6.6h-24c-.331 0-.6-.33-.6-.6v-2.4c0-.33.269-.6.6-.6Zm0 7.2h16.8c.33 0 .6.33.6.6V39c0 .33-.27.6-.6.6h-16.8c-.331 0-.6-.33-.6-.6v-2.4c0-.33.269-.6.6-.6Z"/>
  <path fill="#00A8F7" d="m44.473 10.582-8.255-8.255C34.847.957 32.538 0 30.6 0H5.4A5.404 5.404 0 0 0 0 5.4v43.2C0 51.579 2.421 54 5.4 54h36c2.979 0 5.4-2.421 5.4-5.4V16.2c0-1.938-.956-4.247-2.327-5.618Zm-2.545 2.545c.316.317.604.776.827 1.273H34.5c-.991 0-1.8-.809-1.8-1.8V4.188c.38.197.72.434.973.684l8.255 8.255ZM41.4 50.4h-36c-.989 0-1.8-.81-1.8-1.8V5.4c0-.989.811-1.8 1.8-1.8h23.7v9c0 2.977 2.424 5.4 5.4 5.4h8.7v30.6c0 .99-.81 1.8-1.8 1.8Z"/>
</svg>
