<svg xmlns="http://www.w3.org/2000/svg" width="48" height="43" fill="none" viewBox="0 0 48 43">
  <path fill="#8E43FF" fill-rule="evenodd" d="M8.692 0c5.32 0 10.323 1.717 14.47 4.966l.846.665.846-.665C29.009 1.715 34.004 0 39.324 0h3.717C45.659 0 47.806 2.021 48 4.571v28.777c0 2.725-2.23 4.948-4.975 4.948h-3.718a19.822 19.822 0 0 0-10.91 3.252l-.313.209c-2.353 1.606-5.533 1.656-7.938.15l-.23-.15a19.809 19.809 0 0 0-11.224-3.461H4.975C2.229 38.296 0 36.073 0 33.349V4.947C0 2.223 2.23 0 4.975 0h3.717ZM4.991 3.584c-.75 0-1.368.609-1.368 1.363V33.35c0 .754.617 1.364 1.368 1.364h3.718c4.016 0 7.986 1.031 11.467 2.979l2.036 1.142V8.861l-.465-.41h-.002A19.869 19.869 0 0 0 8.709 3.583H4.99Zm34.332 0c-4.799 0-9.428 1.73-13.036 4.866l-.002.002-.27.237-.195.172v29.973l2.035-1.142a23.524 23.524 0 0 1 11.468-2.98h3.718c.75 0 1.367-.609 1.367-1.364v-28.4c0-.755-.617-1.364-1.367-1.364h-3.718Z" clip-rule="evenodd"/>
</svg>
