<svg xmlns="http://www.w3.org/2000/svg" width="47" height="54" fill="none" viewBox="0 0 47 54">
  <path fill="#D51B11" d="M28.063 29.577c.866 0 1.513.254 1.941.762.438.507.657 1.319.657 2.435 0 1.238-.219 2.13-.657 2.678-.428.548-1.075.823-1.94.823-.195 0-.383-.015-.566-.046-.082-.02-.123-.076-.123-.167v-6.287c0-.08.041-.132.123-.152.183-.03.371-.046.565-.046Zm-9.267-.075c1.375 0 2.064.532 2.064 1.598 0 .558-.179.989-.536 1.293-.356.305-.866.457-1.528.457-.133 0-.321-.01-.566-.03-.081-.02-.122-.072-.122-.153v-2.952c0-.092.04-.148.122-.168.184-.03.372-.045.566-.045Z"/>
  <path fill="#D51B11" fill-rule="evenodd" d="M35.523 21.938c3.155 0 4.732 0 6 .441a7.892 7.892 0 0 1 4.854 4.832c.443 1.263.444 2.835.444 5.977 0 3.141 0 4.713-.444 5.975a7.892 7.892 0 0 1-4.853 4.832c-1.269.442-2.846.443-6.001.443H20.9c-3.155 0-4.733 0-6.001-.443a7.892 7.892 0 0 1-4.853-4.831c-.444-1.263-.444-2.835-.444-5.977 0-3.141 0-4.713.444-5.975a7.892 7.892 0 0 1 4.853-4.833c1.268-.442 2.846-.442 6.001-.442h14.622Zm-7.766 5.28c-.805 0-1.64.04-2.506.122a.869.869 0 0 0-.612.32.987.987 0 0 0-.244.654v9.224c0 .243.08.462.244.654.163.193.367.3.612.32a26.87 26.87 0 0 0 2.506.121c1.824 0 3.246-.502 4.265-1.506 1.029-1.005 1.544-2.456 1.544-4.353 0-1.745-.51-3.105-1.529-4.08-1.019-.984-2.445-1.476-4.28-1.476Zm-9.267 0c-.805 0-1.64.04-2.507.122a.868.868 0 0 0-.61.32.987.987 0 0 0-.246.654v9.3a.83.83 0 0 0 .26.608.84.84 0 0 0 .612.26h1.238a.838.838 0 0 0 .61-.26.83.83 0 0 0 .26-.608v-2.466c0-.081.047-.121.139-.121.346.02.631.03.855.03 1.498 0 2.635-.345 3.409-1.035.785-.7 1.177-1.725 1.177-3.075 0-2.486-1.732-3.729-5.197-3.729Zm16.73.152a.839.839 0 0 0-.612.259.832.832 0 0 0-.26.61v9.375a.83.83 0 0 0 .26.608.838.838 0 0 0 .611.26h1.315a.838.838 0 0 0 .611-.26.83.83 0 0 0 .26-.608v-3.258c0-.09.046-.136.138-.136h2.812a.838.838 0 0 0 .612-.26.832.832 0 0 0 .26-.608v-.548a.832.832 0 0 0-.26-.609.838.838 0 0 0-.612-.258h-2.812c-.092 0-.138-.046-.138-.137v-1.873c0-.08.046-.121.138-.121h3.118a.84.84 0 0 0 .612-.259.832.832 0 0 0 .26-.609v-.7a.832.832 0 0 0-.26-.609.84.84 0 0 0-.612-.259h-5.442Z" clip-rule="evenodd"/>
  <path fill="#D51B11" fill-rule="evenodd" d="M30.73 0c1.948 0 4.266.956 5.643 2.327l8.29 8.255C46.04 11.953 47 14.262 47 16.2v3.937c0 .995-.81 1.8-1.808 1.8a1.804 1.804 0 0 1-1.808-1.8V18h-8.736c-2.99 0-5.424-2.423-5.424-5.4v-9h-23.8a1.81 1.81 0 0 0-1.808 1.8v43.2c0 .99.814 1.8 1.807 1.8h36.154a1.81 1.81 0 0 0 1.807-1.8v-2.362c0-.995.81-1.8 1.808-1.8.999 0 1.808.805 1.808 1.8V48.6c0 2.979-2.432 5.4-5.423 5.4H5.423C2.43 54 0 51.579 0 48.6V5.4C0 2.42 2.431 0 5.423 0H30.73Zm2.11 12.6c0 .992.812 1.8 1.807 1.8h8.29c-.223-.496-.513-.956-.83-1.272l-8.29-8.256a4.064 4.064 0 0 0-.977-.684V12.6Z" clip-rule="evenodd"/>
</svg>
