<svg xmlns="http://www.w3.org/2000/svg" width="42" height="48" fill="none" viewBox="0 0 42 48">
  <path fill="#6A89A0" d="M20.044.259a1.897 1.897 0 0 1 1.912 0c3.496 2.023 15.592 9.02 19.088 11.044.589.345.956.974.956 1.656V35.04c0 .682-.367 1.319-.956 1.656L21.956 47.74a1.897 1.897 0 0 1-1.912 0C16.548 45.718 4.452 38.721.956 36.697A1.923 1.923 0 0 1 0 35.04V12.96c0-.682.367-1.319.956-1.656L20.044.26Zm-7.666 8.768L3.75 14.02v19.96l8.628 4.993L21 43.963l8.622-4.99 8.628-4.993V14.02l-8.628-4.993L21 4.037l-8.622 4.99ZM21 13.93c5.559 0 10.061 4.522 10.061 10.074S26.56 34.077 21 34.077s-10.062-4.521-10.062-10.073c0-5.552 4.504-10.074 10.062-10.074Zm0 3.75c-3.48 0-6.312 2.836-6.312 6.324 0 3.487 2.831 6.323 6.312 6.323 3.481 0 6.311-2.836 6.311-6.323 0-3.488-2.83-6.324-6.311-6.324Z"/>
</svg>
