<svg xmlns="http://www.w3.org/2000/svg" width="39" height="48" fill="none" viewBox="0 0 39 48">
  <path fill="#6A89A0" d="M19.076 29.538c1.02 0 1.846.827 1.846 1.847v2.461a1.846 1.846 0 1 1-3.692 0v-2.461c0-1.02.826-1.847 1.846-1.847Z"/>
  <path fill="#6A89A0" fill-rule="evenodd" d="M19.077 0c6.457 0 11.692 5.235 11.692 11.692v7.385c0 .098 0 .196-.003.294l-.012.49.474.121a9.235 9.235 0 0 1 6.926 8.941v9.846A9.23 9.23 0 0 1 28.924 48H9.23A9.23 9.23 0 0 1 0 38.77v-9.847a9.235 9.235 0 0 1 6.926-8.94l.474-.123-.012-.49a11.89 11.89 0 0 1-.003-.293v-7.385C7.385 5.235 12.619 0 19.077 0ZM9.23 23.385a5.538 5.538 0 0 0-5.539 5.538v9.846a5.538 5.538 0 0 0 5.539 5.539h19.692a5.538 5.538 0 0 0 5.539-5.539v-9.846a5.538 5.538 0 0 0-5.539-5.538H9.231Zm9.846-19.693a8 8 0 0 0-8 8v8h16v-8a8 8 0 0 0-8-8Z" clip-rule="evenodd"/>
</svg>
