<svg xmlns="http://www.w3.org/2000/svg" width="50" height="50" fill="none" viewBox="0 0 50 50">
  <path fill="#00B9A9" fill-rule="evenodd" d="M21.651 8.643c.99.05 1.792.86 1.792 1.871a1.88 1.88 0 0 1-1.888 1.873H9.122a5.364 5.364 0 0 0-3.775 1.553 5.216 5.216 0 0 0-1.568 3.718v23.328c0 1.443.597 2.759 1.568 3.718a5.363 5.363 0 0 0 3.775 1.551H38.67a5.363 5.363 0 0 0 3.776-1.552 5.216 5.216 0 0 0 1.567-3.717V27.418c0-1.04.85-1.873 1.888-1.873a1.88 1.88 0 0 1 1.888 1.873v13.567c0 2.483-1.03 4.739-2.677 6.37l-.002.003A9.157 9.157 0 0 1 38.67 50H9.122a9.162 9.162 0 0 1-6.44-2.642A8.942 8.942 0 0 1 0 40.985v-23.33c0-2.484 1.032-4.74 2.681-6.371a9.154 9.154 0 0 1 6.44-2.643h12.434l.096.002Z" clip-rule="evenodd"/>
  <path fill="#00B9A9" fill-rule="evenodd" d="M36.414.854a1.897 1.897 0 0 1 2.272-.726l.082.035.008.003.007.003.14.071.009.004.008.005 9.13 5.204c.873.5 1.194 1.592.736 2.477l-.047.085L35.088 31.4c-.102.157-.168.239-.297.305-.13.066-.379.123-.379.123l-7.284 1.696-.064.015-.063.015-.014-.002a1.832 1.832 0 0 1-.357.038H10.82a1.88 1.88 0 0 1-1.889-1.873c0-1.042.853-1.874 1.89-1.874H24.09l-1.349-4.435-.003-.01-.002-.009-.04-.166-.003-.01-.001-.009a1.855 1.855 0 0 1 .254-1.324l10.37-17.734.024-.042.011-.019.004-.005L36.367.93l.047-.077Zm-9.824 24.25 1.335 4.388 4.527-1.055 9.04-15.466-5.857-3.34-9.045 15.473Zm10.938-18.71 5.857 3.34 1.154-1.973-5.857-3.34-1.154 1.973Z" clip-rule="evenodd"/>
</svg>
