<svg xmlns="http://www.w3.org/2000/svg" width="24" height="24" fill="none" viewBox="0 0 24 24">
  <path fill="#D51B11" fill-rule="evenodd" d="M12.642 4.541a3.066 3.066 0 1 1-1.892 2.833l.002-.114a3.065 3.065 0 0 1 1.89-2.719Zm1.174 1.828a1.005 1.005 0 0 0-.835 1.561 1.004 1.004 0 1 0 .835-1.56Z" clip-rule="evenodd"/>
  <path fill="#D51B11" fill-rule="evenodd" d="M20.216.005A3.987 3.987 0 0 1 24 3.982v16.036A3.986 3.986 0 0 1 20.018 24H3.982A3.986 3.986 0 0 1 0 20.018V3.982l.005-.197A3.986 3.986 0 0 1 3.982 0h16.036l.198.005ZM3.533 21.883c.147.036.298.055.45.055h14.271l-7.318-7.8-7.403 7.745Zm12.569-5.253 4.777 5.092a1.916 1.916 0 0 0 1.06-1.705v-2.93L18.54 14.07l-2.44 2.56ZM3.888 2.064a1.924 1.924 0 0 0-1.826 1.919v16.033l.005.136c.006.083.018.164.035.244l8.096-8.47a1.035 1.035 0 0 1 .745-.319h.005l.105.006a1.031 1.031 0 0 1 .642.32l2.994 3.191 3.047-3.197a1.03 1.03 0 0 1 .703-.32l.1.002c.232.013.453.104.628.26l2.771 2.462V3.982a1.924 1.924 0 0 0-1.825-1.919l-.096-.002H3.983l-.095.002Z" clip-rule="evenodd"/>
</svg>
