<svg xmlns="http://www.w3.org/2000/svg" width="30" height="18" fill="none" viewBox="0 0 30 18">
  <path fill="#6A89A0" d="M14.88 6.112c.698 0 1.22.203 1.565.609.353.406.53 1.055.53 1.948 0 .99-.177 1.705-.53 2.143-.345.439-.867.658-1.565.658-.156 0-.308-.012-.456-.037-.066-.016-.099-.06-.099-.134V6.27c0-.065.033-.105.099-.122.148-.024.3-.036.456-.036Zm-7.47-.061c1.109 0 1.663.426 1.663 1.279 0 .446-.144.791-.431 1.035-.288.243-.698.365-1.232.365a6.02 6.02 0 0 1-.456-.024c-.066-.017-.099-.057-.099-.122V6.222c0-.073.033-.118.099-.134.148-.024.3-.037.456-.037Z"/>
  <path fill="#6A89A0" fill-rule="evenodd" d="M21.25 0c4.125 0 6.187 0 7.469 1.266C30 2.533 30 4.571 30 8.647v.706c0 4.076 0 6.114-1.281 7.38C27.437 18 25.375 18 21.249 18H8.75c-4.125 0-6.187 0-7.469-1.266C.001 15.467 0 13.429 0 9.353v-.706c0-4.076 0-6.114 1.281-7.38C2.563 0 4.625 0 8.751 0H21.25Zm-6.616 4.225c-.65 0-1.323.032-2.021.097a.701.701 0 0 0-.493.256.786.786 0 0 0-.197.523v7.38c0 .194.066.369.197.523.131.154.296.24.493.256a21.82 21.82 0 0 0 2.02.097c1.471 0 2.617-.402 3.438-1.205.83-.804 1.245-1.965 1.245-3.483 0-1.396-.411-2.484-1.232-3.263-.822-.787-1.972-1.181-3.45-1.181Zm-7.47 0c-.65 0-1.323.032-2.021.097a.701.701 0 0 0-.493.256.786.786 0 0 0-.197.523v7.44c0 .187.07.35.209.487a.68.68 0 0 0 .493.207h.998a.68.68 0 0 0 .493-.207c.14-.138.21-.3.21-.487V10.57c0-.065.036-.098.11-.098.28.016.51.025.69.025 1.208 0 2.124-.276 2.748-.828.632-.56.949-1.38.949-2.46 0-1.989-1.397-2.983-4.19-2.983Zm13.484.121a.679.679 0 0 0-.492.207c-.14.138-.21.3-.21.487v7.501c0 .187.07.35.21.487.14.138.303.207.492.207h1.06a.678.678 0 0 0 .493-.207c.14-.138.21-.3.21-.487V9.936c0-.074.036-.11.11-.11h2.267a.678.678 0 0 0 .493-.207c.14-.138.21-.3.21-.487v-.438a.66.66 0 0 0-.21-.487.678.678 0 0 0-.492-.208H22.52c-.074 0-.11-.036-.11-.11V6.393c0-.065.036-.097.11-.097h2.514c.189 0 .353-.07.493-.207.14-.138.21-.3.21-.487v-.56c0-.187-.07-.35-.21-.488a.679.679 0 0 0-.493-.207h-4.387Z" clip-rule="evenodd"/>
</svg>
