<svg xmlns="http://www.w3.org/2000/svg" width="24" height="24" fill="none" viewBox="0 0 24 24">
  <path fill="#E46700" d="M23.998 9.148c.031.419-.312.76-.732.76h-8.414a.76.76 0 0 1-.76-.76V.734c0-.42.341-.763.76-.732a9.916 9.916 0 0 1 9.146 9.146ZM0 13.001C0 6.943 4.942 2 11 2h.304c.42 0 .76.34.76.76v8.415c0 .42.34.76.76.76h8.415c.42 0 .76.34.76.76V13c0 6.057-4.942 10.999-11 10.999C4.942 24 0 19.058 0 13Zm2.129 0c0 4.891 3.979 8.87 8.87 8.87 4.24 0 7.773-2.99 8.65-6.96.099-.446-.257-.846-.713-.846h-8.24a.76.76 0 0 1-.761-.76v-8.24c0-.457-.4-.813-.846-.714-3.97.88-6.96 4.433-6.96 8.65Z"/>
</svg>
