<svg xmlns="http://www.w3.org/2000/svg" width="24" height="22" fill="none" viewBox="0 0 24 22">
  <path fill="#8E43FF" fill-rule="evenodd" d="M4.346 0c2.66 0 5.161.858 7.235 2.48l.423.333.423-.332A11.633 11.633 0 0 1 19.662 0h1.858c1.31 0 2.383 1.01 2.48 2.283V16.66a2.483 2.483 0 0 1-2.487 2.472h-1.86c-1.948 0-3.829.56-5.454 1.624l-.157.105a3.67 3.67 0 0 1-3.969.075l-.115-.075a9.91 9.91 0 0 0-5.612-1.73H2.487A2.483 2.483 0 0 1 0 16.66V2.47A2.483 2.483 0 0 1 2.487 0h1.86Zm-1.85 1.79a.684.684 0 0 0-.684.681V16.66c0 .377.308.682.683.682h1.86c2.008 0 3.993.515 5.733 1.488l1.018.57V4.427l-.233-.204a9.94 9.94 0 0 0-6.52-2.433H2.495Zm17.166 0a9.94 9.94 0 0 0-6.519 2.431v.001l-.136.118-.097.086V19.4l1.018-.57a11.77 11.77 0 0 1 5.734-1.49h1.858a.684.684 0 0 0 .684-.68V2.47a.683.683 0 0 0-.684-.68h-1.858Z" clip-rule="evenodd"/>
</svg>
