<svg xmlns="http://www.w3.org/2000/svg" width="24" height="25" fill="none" viewBox="0 0 24 25">
  <path fill="#6A89A0" fill-rule="evenodd" d="M10.601 4.232a.921.921 0 0 1 .878.916.92.92 0 0 1-.925.918H4.467c-.72 0-1.374.29-1.849.76a2.554 2.554 0 0 0-.768 1.82V20.07c0 .706.293 1.351.768 1.82.475.47 1.13.76 1.849.76h14.468c.719 0 1.373-.29 1.849-.76a2.553 2.553 0 0 0 .767-1.82v-6.643c0-.51.417-.918.925-.918a.92.92 0 0 1 .924.917v6.643a4.388 4.388 0 0 1-1.31 3.12l-.002.001a4.484 4.484 0 0 1-3.153 1.294H4.467a4.486 4.486 0 0 1-3.154-1.294A4.379 4.379 0 0 1 0 20.07V8.644c0-1.216.505-2.32 1.313-3.12A4.482 4.482 0 0 1 4.467 4.23h6.087l.047.001Z" clip-rule="evenodd"/>
  <path fill="#6A89A0" fill-rule="evenodd" d="M17.83.418a.929.929 0 0 1 1.113-.355l.04.017.004.001.003.002.07.035.003.001.004.003 4.47 2.548c.428.245.585.78.361 1.213l-.023.042-6.694 11.45c-.05.077-.082.117-.146.15-.063.032-.185.06-.185.06l-3.567.83-.031.008-.03.007-.008-.001a.895.895 0 0 1-.175.019H5.3a.921.921 0 0 1-.925-.918.92.92 0 0 1 .925-.917h6.497l-.66-2.172-.002-.004-.001-.005-.02-.082-.001-.004v-.005a.908.908 0 0 1 .124-.648l5.078-8.684.011-.02.006-.01.001-.002L17.807.456l.024-.038Zm-4.81 11.874.654 2.149 2.216-.517 4.427-7.572-2.868-1.636-4.43 7.576Zm5.356-9.161 2.868 1.635.565-.966-2.868-1.636-.565.967Z" clip-rule="evenodd"/>
</svg>
