<svg xmlns="http://www.w3.org/2000/svg" width="22" height="25" fill="none" viewBox="0 0 22 25">
  <path fill="#3581F2" fill-rule="evenodd" d="M12.783 16c.159 0 .288.079.371.168a.523.523 0 0 1 .146.349v1.066a.517.517 0 0 1-.517.517H5.316a.512.512 0 0 1-.37-.167.525.525 0 0 1-.146-.35v-1.066c0-.285.232-.517.516-.517h7.467Zm3.2-3.2c.159 0 .288.079.372.168a.523.523 0 0 1 .145.348v1.067a.517.517 0 0 1-.517.516H5.316a.512.512 0 0 1-.37-.167.525.525 0 0 1-.146-.35v-1.066c0-.284.232-.516.516-.516h10.667Zm0-3.2c.159 0 .288.078.372.168a.524.524 0 0 1 .145.348v1.067a.517.517 0 0 1-.517.516H5.316a.512.512 0 0 1-.37-.167.525.525 0 0 1-.146-.35v-1.066c0-.284.232-.516.516-.516h10.667Z" clip-rule="evenodd"/>
  <path fill="#3581F2" fill-rule="evenodd" d="M13.85 0c.927 0 2.017.451 2.673 1.107l3.67 3.67c.656.656 1.107 1.745 1.107 2.673v14.4a2.652 2.652 0 0 1-2.65 2.65h-16A2.653 2.653 0 0 1 0 21.85V2.65A2.653 2.653 0 0 1 2.65 0h11.2ZM2.65 2.1a.554.554 0 0 0-.55.55v19.2c0 .301.249.55.55.55h16c.302 0 .55-.249.55-.55V8.5h-3.617c-1.46 0-2.65-1.19-2.65-2.65V2.1H2.65Zm12.383 3.75c0 .302.248.55.55.55h3.24a1.154 1.154 0 0 0-.115-.14l-3.669-3.667-.006-.007V5.85Z" clip-rule="evenodd"/>
</svg>
