<svg xmlns="http://www.w3.org/2000/svg" width="22" height="25" fill="none" viewBox="0 0 22 25">
  <path fill="#05B10C" fill-rule="evenodd" d="M13.85 0c.927 0 2.017.451 2.673 1.107l3.67 3.67c.656.656 1.107 1.745 1.107 2.673v14.4a2.652 2.652 0 0 1-2.65 2.65h-16A2.653 2.653 0 0 1 0 21.85V2.65A2.653 2.653 0 0 1 2.65 0h11.2ZM2.65 2.1a.554.554 0 0 0-.55.55v19.2c0 .301.249.55.55.55h16c.302 0 .55-.249.55-.55V8.5h-3.617c-1.46 0-2.65-1.19-2.65-2.65V2.1H2.65Zm12.383 3.75c0 .302.248.55.55.55h3.24a1.154 1.154 0 0 0-.115-.14l-3.669-3.667-.006-.007V5.85Z" clip-rule="evenodd"/>
  <path fill="#05B10C" fill-rule="evenodd" d="M4.4 10.071c0-.315.256-.571.571-.571H16.4c.315 0 .571.256.571.571v10.286a.572.572 0 0 1-.571.572H4.97a.571.571 0 0 1-.571-.572V10.071Zm1.143.572v9.143h10.286v-9.143H5.543Z" clip-rule="evenodd"/>
  <path fill="#05B10C" fill-rule="evenodd" d="M7.828 20.357V10.072h1.143v10.285H7.828Zm4.572 0V10.072h1.143v10.285H12.4Z" clip-rule="evenodd"/>
  <path fill="#05B10C" fill-rule="evenodd" d="M16.4 14.071H4.971V12.93H16.4v1.142Z" clip-rule="evenodd"/>
</svg>
