<svg xmlns="http://www.w3.org/2000/svg" width="100" height="100" fill="none" viewBox="0 0 100 100">
  <path fill="#EADCFF" d="M0 0h84c8.837 0 16 7.163 16 16v84H16c-8.837 0-16-7.163-16-16V0Z"/>
  <path fill="#8E43FF" fill-rule="evenodd" d="M34.692 29c5.32 0 10.323 1.717 14.47 4.966l.846.665.846-.665c4.155-3.25 9.15-4.966 14.47-4.966h3.717c2.618 0 4.765 2.021 4.959 4.571V62.35c0 2.724-2.23 4.947-4.975 4.947h-3.718a19.822 19.822 0 0 0-10.91 3.252l-.313.209c-2.353 1.606-5.533 1.656-7.938.15l-.23-.15a19.809 19.809 0 0 0-11.224-3.461h-3.717c-2.746 0-4.975-2.223-4.975-4.948v-28.4C26 31.222 28.23 29 30.975 29h3.717Zm-3.701 3.584c-.75 0-1.368.609-1.368 1.363v28.401c0 .755.617 1.364 1.368 1.364h3.718c4.016 0 7.986 1.032 11.467 2.98l2.036 1.143V37.86l-.465-.41h-.002a19.869 19.869 0 0 0-13.036-4.867H30.99Zm34.332 0c-4.799 0-9.428 1.73-13.036 4.866l-.002.002-.27.237-.195.172v29.974l2.035-1.143a23.524 23.524 0 0 1 11.468-2.98h3.718c.75 0 1.367-.609 1.367-1.364v-28.4c0-.755-.617-1.364-1.367-1.364h-3.718Z" clip-rule="evenodd"/>
</svg>
