<svg xmlns="http://www.w3.org/2000/svg" width="145" height="66" fill="none" viewBox="0 0 145 66">
  <path fill="#5266EA" d="M0 32.918c0-8.619 6.633-15.69 15.08-16.4.771-.065 1.401.567 1.401 1.34v30.12c0 .773-.63 1.405-1.401 1.34C6.633 48.608 0 41.536 0 32.918ZM32.797 66c-8.63 0-15.712-6.625-16.422-15.061-.065-.77.569-1.398 1.343-1.398h30.158c.775 0 1.409.628 1.344 1.398C48.51 59.375 41.428 66 32.797 66Zm0-65.835c-8.63 0-15.712 6.625-16.422 15.06-.065.77.569 1.399 1.343 1.399h30.158c.775 0 1.409-.629 1.344-1.398C48.51 6.79 41.428.165 32.797.165ZM.165 5.925A5.932 5.932 0 0 1 6.098 0a5.932 5.932 0 0 1 5.933 5.925 5.932 5.932 0 0 1-5.933 5.925A5.932 5.932 0 0 1 .165 5.925Z"/>
  <path fill="#639AFF" d="M39.13 49.541a108.666 108.666 0 0 1 2.22 14.073A16.42 16.42 0 0 1 32.796 66c-8.63 0-15.712-6.625-16.422-15.061-.065-.77.569-1.398 1.343-1.398H39.13ZM15.08 16.518c.771-.065 1.401.567 1.401 1.34v30.12c0 .773-.63 1.405-1.401 1.34C6.633 48.608 0 41.536 0 32.918c0-8.619 6.633-15.69 15.08-16.4Zm2.601-6.464c2.35 1.942 4.513 4.15 6.494 6.57h-6.457c-.774 0-1.408-.629-1.343-1.398a16.342 16.342 0 0 1 1.306-5.172ZM1.564 2.105A36.707 36.707 0 0 1 12.027 6.13a5.932 5.932 0 0 1-5.929 5.72A5.932 5.932 0 0 1 .165 5.924c0-1.455.526-2.788 1.399-3.82Z"/>
  <path fill="#6AB6FF" d="M12.827 16.865c2.485 8.736-1.564 17.89-8.946 26.663A16.38 16.38 0 0 1 0 32.918c0-7.836 5.483-14.393 12.827-16.053ZM1.39 2.32c3.691 2.659 6.453 5.415 8.405 8.239a5.932 5.932 0 0 1-9.63-4.633c0-1.356.457-2.607 1.225-3.606Z"/>
  <path fill="#5878F1" d="M32.797.165c8.631 0 15.713 6.625 16.423 15.06.043.51-.22.957-.627 1.201-7.902-2.33-15.996-9.257-17.73-13.108L29.94.411a16.607 16.607 0 0 1 2.857-.246Z"/>
  <path fill="#6AB6FF" d="M17.2 49.64c7.71 1.734 15.862 7.144 23.717 14.227A16.422 16.422 0 0 1 32.797 66c-8.63 0-15.712-6.625-16.422-15.061-.05-.588.309-1.093.826-1.3Z"/>
  <path fill="#5266EA" d="M26.124 41.048V25.437h6.756c1.161 0 2.178.229 3.049.686a4.986 4.986 0 0 1 2.033 1.928c.484.829.726 1.797.726 2.905 0 1.118-.25 2.086-.75 2.904-.494.818-1.189 1.448-2.086 1.89-.891.442-1.933.663-3.125.663h-4.035V33.12h3.179c.5 0 .925-.086 1.276-.259a1.9 1.9 0 0 0 .818-.754c.193-.326.29-.71.29-1.151 0-.448-.097-.829-.29-1.144a1.82 1.82 0 0 0-.818-.732c-.351-.172-.777-.259-1.276-.259h-1.498v12.227h-4.249Zm19.929 0h-6.022V25.437h5.961c1.61 0 3.001.313 4.173.938a6.466 6.466 0 0 1 2.72 2.683c.642 1.163.963 2.558.963 4.184 0 1.627-.318 3.024-.955 4.193a6.546 6.546 0 0 1-2.705 2.683c-1.167.62-2.545.93-4.135.93ZM44.28 37.45h1.62c.775 0 1.435-.125 1.98-.374.55-.249.968-.678 1.253-1.288.29-.61.436-1.458.436-2.546 0-1.087-.148-1.936-.444-2.546-.29-.61-.718-1.039-1.283-1.288-.56-.249-1.248-.373-2.064-.373H44.28v8.415Zm11.32 3.598V25.437h11.004v3.415h-6.756v2.683h6.083v3.415h-6.083v6.098H55.6Z"/>
  <path fill="#43446C" d="M76.388 30.315c-.04-.508-.232-.904-.573-1.189-.336-.284-.848-.427-1.536-.427-.438 0-.797.054-1.078.16-.275.102-.478.242-.61.42a1.034 1.034 0 0 0-.207.61 1 1 0 0 0 .1.51c.08.148.208.282.381.404.173.117.395.224.665.32a7.2 7.2 0 0 0 .963.26l1.284.274c.866.183 1.607.424 2.224.724.616.3 1.12.653 1.513 1.06.392.401.68.853.863 1.356.189.503.286 1.052.29 1.647-.004 1.026-.262 1.895-.771 2.607-.51.711-1.238 1.252-2.186 1.623-.942.371-2.076.557-3.4.557-1.36 0-2.548-.201-3.562-.602-1.008-.402-1.793-1.02-2.353-1.853-.556-.838-.836-1.91-.841-3.216h4.035c.026.477.145.879.36 1.204a2 2 0 0 0 .9.74c.393.167.86.25 1.4.25.453 0 .832-.055 1.138-.167.306-.112.538-.267.695-.465.159-.198.24-.424.245-.678a.962.962 0 0 0-.237-.625c-.148-.183-.392-.346-.734-.488-.34-.148-.802-.285-1.383-.412l-1.559-.335c-1.385-.3-2.478-.8-3.278-1.502-.795-.706-1.19-1.67-1.185-2.889-.005-.99.26-1.857.795-2.599.54-.747 1.287-1.329 2.24-1.745.957-.417 2.055-.625 3.293-.625 1.264 0 2.356.21 3.279.632.922.422 1.632 1.016 2.132 1.784.504.762.759 1.654.764 2.675h-4.066Zm5.253-1.463v-3.415h13.603v3.415h-4.708v12.196h-4.188V28.852h-4.707Zm29.413 4.39c0 1.738-.339 3.204-1.016 4.399-.678 1.189-1.592 2.09-2.744 2.706-1.151.61-2.435.914-3.851.914-1.427 0-2.716-.307-3.867-.922-1.147-.62-2.058-1.525-2.736-2.714-.673-1.194-1.009-2.655-1.009-4.383 0-1.738.336-3.201 1.009-4.39.677-1.194 1.59-2.096 2.736-2.706 1.151-.615 2.44-.922 3.867-.922 1.416 0 2.7.307 3.851.922 1.152.61 2.066 1.512 2.744 2.706.677 1.189 1.016 2.652 1.016 4.39Zm-4.371 0c0-.935-.125-1.722-.375-2.363-.244-.645-.608-1.133-1.092-1.463-.479-.335-1.07-.503-1.773-.503-.703 0-1.297.168-1.781.503-.479.33-.843.818-1.093 1.463-.244.64-.367 1.428-.367 2.363s.123 1.726.367 2.37c.25.641.614 1.129 1.093 1.464.484.33 1.078.496 1.781.496.703 0 1.294-.165 1.773-.496.484-.335.848-.823 1.092-1.463.25-.645.375-1.436.375-2.37Zm6.122 7.806V25.437h6.756c1.161 0 2.178.21 3.049.633a4.746 4.746 0 0 1 2.033 1.821c.484.793.726 1.743.726 2.851 0 1.118-.25 2.06-.749 2.828-.495.767-1.19 1.347-2.087 1.738-.891.391-1.933.587-3.125.587h-4.035v-3.293h3.179c.499 0 .924-.06 1.276-.183.357-.127.629-.328.818-.602.193-.274.29-.633.29-1.075 0-.447-.097-.81-.29-1.09a1.624 1.624 0 0 0-.818-.625c-.352-.137-.777-.206-1.276-.206h-1.498v12.227h-4.249Zm9.17-7.165 3.913 7.165h-4.616l-3.821-7.165h4.524Zm4.99-8.446h5.288l3.638 8.842h.183l3.638-8.842H145v15.61h-4.157v-9.024h-.123l-3.484 8.903h-2.507l-3.485-8.964h-.122v9.086h-4.157V25.437Z"/>
</svg>
