<svg xmlns="http://www.w3.org/2000/svg" width="145" height="66" fill="none" viewBox="0 0 145 66">
  <path fill="#5266EA" d="M0 32.918c0-8.619 6.633-15.69 15.08-16.4.771-.065 1.401.567 1.401 1.34v30.12c0 .773-.63 1.405-1.401 1.34C6.633 48.608 0 41.536 0 32.918ZM32.797 66c-8.63 0-15.712-6.625-16.422-15.061-.065-.77.569-1.398 1.343-1.398h30.158c.775 0 1.409.628 1.344 1.398C48.51 59.375 41.428 66 32.797 66Zm0-65.835c-8.63 0-15.712 6.625-16.422 15.06-.065.77.569 1.399 1.343 1.399h30.158c.775 0 1.409-.629 1.344-1.398C48.51 6.79 41.428.165 32.797.165ZM.165 5.925A5.932 5.932 0 0 1 6.098 0a5.932 5.932 0 0 1 5.933 5.925 5.932 5.932 0 0 1-5.933 5.925A5.932 5.932 0 0 1 .165 5.925Z"/>
  <path fill="#639AFF" d="M39.13 49.541a108.663 108.663 0 0 1 2.22 14.073A16.421 16.421 0 0 1 32.796 66c-8.63 0-15.712-6.625-16.422-15.06-.065-.77.569-1.399 1.343-1.399H39.13ZM15.08 16.518c.771-.065 1.401.567 1.401 1.34v30.12c0 .773-.63 1.405-1.401 1.34C6.633 48.608 0 41.537 0 32.918s6.633-15.69 15.08-16.4Zm2.601-6.464c2.35 1.942 4.513 4.15 6.494 6.57h-6.457c-.774 0-1.408-.628-1.343-1.398a16.342 16.342 0 0 1 1.306-5.172ZM1.564 2.105a36.707 36.707 0 0 1 10.463 4.026 5.932 5.932 0 0 1-5.929 5.72A5.932 5.932 0 0 1 .165 5.925c0-1.454.526-2.788 1.399-3.82Z"/>
  <path fill="#6AB6FF" d="M12.827 16.865c2.485 8.736-1.564 17.89-8.946 26.663A16.38 16.38 0 0 1 0 32.918c0-7.836 5.483-14.393 12.827-16.053ZM1.39 2.32c3.691 2.659 6.453 5.415 8.405 8.239a5.932 5.932 0 0 1-9.63-4.633c0-1.356.457-2.607 1.225-3.606Z"/>
  <path fill="#5878F1" d="M32.797.165c8.631 0 15.713 6.625 16.423 15.06.043.51-.22.957-.627 1.201-7.902-2.33-15.996-9.257-17.73-13.108L29.94.411a16.607 16.607 0 0 1 2.857-.246Z"/>
  <path fill="#6AB6FF" d="M17.2 49.64c7.71 1.734 15.862 7.144 23.717 14.227A16.422 16.422 0 0 1 32.797 66c-8.63 0-15.712-6.625-16.422-15.061-.05-.588.309-1.094.826-1.3Z"/>
  <path fill="#5266EA" d="M26.124 41.048v-15.61h6.756c1.161 0 2.178.228 3.05.685a4.986 4.986 0 0 1 2.032 1.929c.484.828.726 1.796.726 2.904 0 1.118-.25 2.086-.749 2.904-.494.818-1.19 1.448-2.086 1.89-.892.442-1.934.663-3.126.663h-4.035v-3.292h3.18c.498 0 .924-.087 1.275-.26.357-.177.63-.43.818-.754.194-.325.29-.71.29-1.151 0-.447-.096-.829-.29-1.144a1.82 1.82 0 0 0-.818-.731c-.351-.173-.777-.26-1.276-.26h-1.498v12.227h-4.249Zm19.93 0h-6.022v-15.61h5.96c1.61 0 3.001.312 4.173.937a6.466 6.466 0 0 1 2.72 2.683c.643 1.163.964 2.558.964 4.184 0 1.627-.319 3.024-.956 4.193a6.546 6.546 0 0 1-2.705 2.683c-1.167.62-2.545.93-4.134.93ZM44.28 37.45h1.62c.774 0 1.434-.124 1.98-.373.55-.25.967-.679 1.252-1.289.29-.61.436-1.458.436-2.545 0-1.088-.148-1.937-.443-2.546-.29-.61-.719-1.04-1.284-1.289-.56-.249-1.248-.373-2.063-.373H44.28v8.415Zm11.32 3.598v-15.61h11.004v3.414h-6.756v2.683h6.084v3.415h-6.084v6.098H55.6Z"/>
  <path fill="#43446C" d="M76.388 30.315c-.04-.508-.231-.904-.573-1.189-.336-.284-.848-.427-1.536-.427-.438 0-.797.054-1.077.16-.275.102-.48.242-.612.42a1.035 1.035 0 0 0-.206.61.999.999 0 0 0 .1.51c.08.148.208.282.382.404.173.117.394.224.664.32a7.2 7.2 0 0 0 .963.26l1.284.274c.866.183 1.608.424 2.224.724.616.3 1.12.653 1.513 1.06.392.401.68.853.864 1.356a4.79 4.79 0 0 1 .29 1.647c-.005 1.026-.262 1.895-.772 2.607-.51.711-1.238 1.252-2.185 1.623-.943.371-2.076.557-3.401.557-1.36 0-2.547-.2-3.561-.602-1.01-.402-1.794-1.02-2.354-1.853-.555-.838-.836-1.91-.84-3.216h4.034c.026.477.145.879.36 1.204a2 2 0 0 0 .901.74c.393.167.859.251 1.399.251.453 0 .833-.056 1.138-.168.306-.112.538-.267.696-.465.158-.198.24-.424.244-.678a.962.962 0 0 0-.237-.625c-.147-.183-.392-.346-.733-.488-.342-.147-.803-.285-1.383-.412l-1.56-.335c-1.385-.3-2.478-.8-3.278-1.502-.795-.706-1.19-1.669-1.184-2.889-.005-.99.26-1.857.794-2.599.54-.747 1.287-1.329 2.24-1.745.957-.417 2.055-.625 3.293-.625 1.264 0 2.357.21 3.279.632.922.422 1.633 1.017 2.132 1.784.504.762.759 1.654.764 2.675h-4.066Zm5.253-1.463v-3.415h13.603v3.415h-4.707v12.196h-4.188V28.852H81.64Zm29.413 4.39c0 1.738-.338 3.204-1.016 4.399-.678 1.189-1.592 2.09-2.743 2.706-1.152.61-2.436.914-3.852.914-1.427 0-2.716-.307-3.867-.922-1.146-.62-2.058-1.524-2.736-2.714-.672-1.194-1.009-2.655-1.009-4.383 0-1.737.337-3.201 1.01-4.39.677-1.194 1.589-2.096 2.735-2.706 1.151-.615 2.44-.922 3.867-.922 1.416 0 2.7.307 3.852.922 1.151.61 2.065 1.512 2.743 2.706.678 1.189 1.016 2.652 1.016 4.39Zm-4.371 0c0-.935-.125-1.722-.374-2.362-.245-.646-.609-1.134-1.093-1.464-.479-.335-1.07-.503-1.773-.503-.703 0-1.297.168-1.781.503-.479.33-.843.818-1.093 1.463-.244.64-.366 1.428-.366 2.363 0 .936.122 1.726.366 2.371.25.64.614 1.128 1.093 1.464.484.33 1.078.495 1.781.495.703 0 1.294-.165 1.773-.495.484-.336.848-.824 1.093-1.464.249-.645.374-1.435.374-2.37Zm6.122 7.806v-15.61h6.756c1.161 0 2.178.21 3.049.632a4.747 4.747 0 0 1 2.033 1.822c.484.792.726 1.742.726 2.85 0 1.118-.25 2.06-.749 2.828-.494.768-1.19 1.347-2.086 1.738-.892.391-1.934.587-3.126.587h-4.035v-3.293h3.179c.499 0 .925-.06 1.276-.183.357-.127.629-.327.818-.602.194-.274.29-.633.29-1.075 0-.447-.096-.81-.29-1.09a1.624 1.624 0 0 0-.818-.625c-.351-.137-.777-.206-1.276-.206h-1.498v12.227h-4.249Zm9.171-7.165 3.912 7.165h-4.615l-3.821-7.165h4.524Zm4.989-8.446h5.288l3.638 8.842h.183l3.638-8.842H145v15.61h-4.157v-9.024h-.122l-3.485 8.903h-2.507l-3.485-8.964h-.122v9.086h-4.157v-15.61Z"/>
</svg>
