<svg xmlns="http://www.w3.org/2000/svg" width="42" height="44" fill="none" viewBox="0 0 42 44">
  <path fill="#C5D9F9" fill-rule="evenodd" d="M19.261 29.909v6.083a1.521 1.521 0 0 0 3.041 0v-6.083a1.521 1.521 0 0 0-3.041 0Z" clip-rule="evenodd"/>
  <path fill="#C5D9F9" fill-rule="evenodd" d="M17.741 34.472h6.083a1.521 1.521 0 0 0 0-3.041h-6.083a1.521 1.521 0 0 0 0 3.041Zm.986-24.87a2.056 2.056 0 1 0 4.112 0 2.056 2.056 0 0 0-4.112 0Z" clip-rule="evenodd"/>
  <path fill="#C5D9F9" fill-rule="evenodd" d="M20.782 0a8.618 8.618 0 0 0-8.617 8.618v26.36a8.618 8.618 0 0 0 17.235 0V8.618A8.617 8.617 0 0 0 20.782 0Zm0 3.042a5.576 5.576 0 0 1 5.576 5.576v26.36a5.576 5.576 0 1 1-11.152 0V8.618a5.577 5.577 0 0 1 5.576-5.576Z" clip-rule="evenodd"/>
  <path fill="#C5D9F9" fill-rule="evenodd" d="M13.943 3.487 1.039 16.39a3.548 3.548 0 0 0 0 5.017 9.628 9.628 0 0 0 13.62 0 1.519 1.519 0 1 0-2.15-2.15 6.592 6.592 0 0 1-9.32 0 .507.507 0 0 1 .001-.718L16.094 5.636a1.521 1.521 0 0 0-2.151-2.15Zm14 36.621L40.96 27.09a3.55 3.55 0 0 0 .444-4.477l-.416-.625a3.55 3.55 0 0 0-6.243.649c-.294.787-.708 1.557-1.468 1.863-.495.197-1.107.165-1.874-.09a1.528 1.528 0 0 0-1.326.178l-3.041 2.027a1.522 1.522 0 0 0 1.687 2.53l2.461-1.64c1.282.293 2.344.17 3.224-.182 1.535-.614 2.57-1.995 3.172-3.581a.507.507 0 0 1 .877-.063l.416.62a.505.505 0 0 1-.065.64l-13.017 13.02a1.521 1.521 0 0 0 2.151 2.15Z" clip-rule="evenodd"/>
</svg>
