<svg xmlns="http://www.w3.org/2000/svg" width="33" height="39" fill="none" viewBox="0 0 33 39">
  <path fill="#C5D9F9" stroke="#C5D9F9" d="M31.299 7.309 16.937.636a1.459 1.459 0 0 0-1.23 0L1.344 7.31A1.46 1.46 0 0 0 .5 8.635V25.25c0 .35.125.69.356.957 4.005 4.627 8.82 8.582 14.719 12.092a1.484 1.484 0 0 0 1.494-.004c5.901-3.506 10.714-7.464 14.718-12.092.228-.264.357-.603.357-.956V8.635c0-.567-.33-1.085-.845-1.326Zm-2.075 17.39c-3.556 4.021-7.785 7.508-12.9 10.635-5.116-3.127-9.345-6.617-12.9-10.635V9.565l12.9-5.993 12.9 5.993V24.7Zm-14.148-3.737 7.27-7.692a1.457 1.457 0 0 1 2.065-.056c.588.554.614 1.48.056 2.064l-8.246 8.725a1.454 1.454 0 0 1-1.062.455 1.45 1.45 0 0 1-.973-.372l-5.927-5.304a1.46 1.46 0 0 1 1.946-2.177l4.871 4.357Z"/>
</svg>
