<svg xmlns="http://www.w3.org/2000/svg" width="34" height="34" fill="none" viewBox="0 0 34 34">
  <path fill="#C5D9F9" d="M2.125 11.688A2.125 2.125 0 0 0 4.25 9.562V6.376A2.125 2.125 0 0 1 6.375 4.25h3.188a2.125 2.125 0 1 0 0-4.25H6.374A6.375 6.375 0 0 0 0 6.375v3.188a2.125 2.125 0 0 0 2.125 2.124ZM24.438 34h3.187A6.375 6.375 0 0 0 34 27.625v-3.188a2.125 2.125 0 0 0-4.25 0v3.188a2.125 2.125 0 0 1-2.125 2.125h-3.188a2.125 2.125 0 0 0 0 4.25Zm8.5-23.375a9.562 9.562 0 0 0-9.563-9.562 5.281 5.281 0 0 0-3.756 1.556l-17 17a5.274 5.274 0 0 0-1.556 3.756v4.25a5.312 5.312 0 0 0 5.312 5.313h4.25a5.28 5.28 0 0 0 3.756-1.557l17-17a5.276 5.276 0 0 0 1.556-3.756Zm-4.559.75-17 17a1.062 1.062 0 0 1-.754.313h-4.25a1.062 1.062 0 0 1-1.062-1.063v-4.25c0-.281.113-.55.313-.749l17-17c.198-.2.468-.312.749-.313a5.312 5.312 0 0 1 5.313 5.312 1.07 1.07 0 0 1-.314.75h.005Z"/>
</svg>
