<svg xmlns="http://www.w3.org/2000/svg" width="38" height="35" fill="none" viewBox="0 0 38 35">
  <path fill="#C5D9F9" stroke="#C5D9F9" stroke-width="2" d="M22.262 1c4.07 0 7.755 1.637 10.421 4.282A14.514 14.514 0 0 1 37 15.62c0 4.037-1.65 7.692-4.317 10.337a14.752 14.752 0 0 1-10.421 4.282c-4.07 0-7.755-1.637-10.421-4.282A14.513 14.513 0 0 1 7.524 15.62c0-4.037 1.65-7.693 4.317-10.338A14.75 14.75 0 0 1 22.262 1Zm-.844 6.516a.84.84 0 0 1 .844-.837.84.84 0 0 1 .844.837v7.015l5.407-1.438a.835.835 0 1 1 .436 1.614l-6.42 1.707a.84.84 0 0 1-1.108-.796V7.514l-.003.002Zm-8.943 24.926c.402.23.54.741.307 1.141a.847.847 0 0 1-1.151.305 21.283 21.283 0 0 1-7.794-7.74A20.863 20.863 0 0 1 1 15.623a.84.84 0 0 1 .844-.838.84.84 0 0 1 .844.838c0 3.534.948 6.844 2.606 9.694a19.592 19.592 0 0 0 7.18 7.126v-.001ZM31.49 6.466a13.064 13.064 0 0 0-9.229-3.792c-3.604 0-6.867 1.45-9.229 3.792a12.855 12.855 0 0 0-3.823 9.155c0 3.575 1.461 6.812 3.823 9.155a13.064 13.064 0 0 0 9.229 3.792c3.604 0 6.867-1.45 9.229-3.792a12.855 12.855 0 0 0 3.823-9.155c0-3.575-1.461-6.811-3.823-9.155Z"/>
</svg>
